<mxfile host="app.diagrams.net" modified="2023-05-09T19:36:00.806Z" agent="Mozilla/5.0 (Windows NT 10.0; Win64; x64) AppleWebKit/537.36 (KHTML, like Gecko) Chrome/112.0.0.0 Safari/537.36" version="21.2.2" etag="w9Ti1xsbV9uh9aJ9lRj2" type="github">
  <diagram name="PÃ¡gina-1" id="85H-ZSLh7sI2p2SvgXUS">
    <mxGraphModel>
      <root>
        <mxCell id="0" />
        <mxCell id="1" parent="0" />
      </root>
    </mxGraphModel>
  </diagram>
</mxfile>
